#define shade_width 8
#define shade_height 8
static unsigned char shade_bits[] = {
   0x7e, 0x7e, 0x7e, 0x00, 0x00, 0x00, 0x00, 0x00 };
