#define shade_hover_width 8
#define shade_hover_height 8
static unsigned char shade_hover_bits[] = {
   0xff, 0xff, 0xff, 0x00, 0x00, 0x00, 0x00, 0x00 };
